<?xml version="1.0" encoding="UTF-8" standalone="no"?>
<svg
   width="194.15mm"
   height="37.975mm"
   version="1.1"
   viewBox="0 0 194.15 37.975"
   id="svg845"
   xmlns="http://www.w3.org/2000/svg"
   xmlns:svg="http://www.w3.org/2000/svg">
  <defs
     id="defs849" />
  <g
     font-weight="bold"
     stroke-width=".26458"
     id="g843">
    <g
       aria-label="OITSWILLIAMV2"
       id="g747">
      <path
         d="m7.7978 16.993q-1.3716 0-2.54-0.1778-1.143-0.1778-2.3876-0.6096-1.3462-0.4572-2.1082-1.4732-0.762-1.0414-0.762-2.5146v-7.2136q0-1.2192 0.5334-2.1844 0.5588-0.9652 1.4224-1.524 0.762-0.4826 1.8796-0.8128t2.0828-0.4064q0.889-0.0762 1.8796-0.0762 1.1684 0 2.032 0.1016 0.8636 0.0762 1.9304 0.3556 1.2192 0.3556 2.0066 0.8636t1.3208 1.4224q0.5588 0.9398 0.5588 2.2606v7.2136q0 1.3716-0.7366 2.3622-0.7112 0.9906-1.9812 1.4986-2.286 0.9144-5.1308 0.9144zm0.0508-2.8194q0.8382 0 1.397-0.0508 0.5842-0.0762 1.1938-0.254t0.9144-0.5842q0.3302-0.4318 0.3302-1.0668v-7.239q0-1.1684-0.9398-1.651-0.9398-0.508-2.921-0.508t-2.921 0.4826-0.9398 1.6764v7.239q0 0.635 0.3302 1.0668 0.3302 0.4064 0.9652 0.5842 0.6096 0.1778 1.1684 0.254 0.5842 0.0508 1.4224 0.0508z"
         id="path721" />
      <path
         d="m18.86 0.254h3.9624v16.485h-3.9624z"
         id="path723" />
      <path
         d="m30.211 3.0734h-5.08v-2.8194h14.097v2.8194h-5.0546v13.665h-3.9624z"
         id="path725" />
      <path
         d="m46.865 16.993q-2.3622 0-5.842-0.4572v-3.0226q4.318 0.6604 5.8928 0.6604 3.302 0 3.302-1.7018v-1.0668q0-0.8128-0.4826-1.2446-0.4572-0.4318-1.6764-0.4318h-1.9304q-5.4356 0-5.4356-4.318v-1.2192q0-2.159 1.8034-3.175t5.715-1.016q2.032 0 5.1562 0.3302v2.9464q-3.8354-0.4572-5.2832-0.4572-2.0066 0-2.6924 0.3302-0.7366 0.3556-0.7366 1.1176v1.1684q0 1.2954 2.1844 1.2954h1.9812q2.8194 0 4.0894 1.0414t1.27 3.175v1.0922q0 2.9464-2.1082 3.9878-1.016 0.5334-2.2606 0.7366-1.2192 0.2286-2.9464 0.2286z"
         id="path727" />
      <path
         d="m55.335 0.254h4.1148l3.2004 12.04 3.2004-12.04h3.683l3.4544 12.04 2.9464-12.04h4.0132l-5.2832 16.485h-3.9116l-3.1496-11.963-3.2512 11.963h-3.9116z"
         id="path729" />
      <path
         d="m81.913 0.254h3.9624v16.485h-3.9624z"
         id="path731" />
      <path
         d="m89.454 0.254h3.9624v13.665h8.1026v2.8194h-12.065z"
         id="path733" />
      <path
         d="m104.19 0.254h3.9624v13.665h8.1026v2.8194h-12.065z"
         id="path735" />
      <path
         d="m118.92 0.254h3.9624v16.485h-3.9624z"
         id="path737" />
      <path
         d="m130.83 0.254h4.826l5.9436 16.485h-4.0132l-1.4732-4.3434h-6.0198l-1.4478 4.3434h-3.9116zm4.4196 9.4996-2.0828-6.1976h-0.1016l-2.0828 6.1976z"
         id="path739" />
      <path
         d="m143.43 0.254h5.6388l4.064 11.786 4.0132-11.786h5.3086v16.485h-3.5814v-12.192h-0.0762l-4.1656 12.192h-3.175l-4.2926-12.192h-0.1016v12.192h-3.6322z"
         id="path741" />
      <path
         d="m164.22 0.254h4.0132l4.4196 13.183h0.1016l4.4196-13.183h3.9116l-6.096 16.485h-4.8514z"
         id="path743" />
      <path
         d="m182.56 12.979q0-1.3716 0.762-2.3876t1.9812-1.5494q0.9652-0.4318 2.2606-0.8636t2.0066-0.9144 0.7112-1.143v-2.1082q0-0.7874-0.635-1.0414-0.6858-0.2794-2.1336-0.2794-1.7526 0-4.6228 0.635v-2.794q2.54-0.5334 5.3086-0.5334 2.9972 0 4.445 0.9144 1.4732 0.9144 1.4732 3.048v2.286q0 1.2954-0.7874 2.2606-0.762 0.9398-1.9812 1.4224-1.143 0.4826-2.3368 0.8636-1.2954 0.4572-2.0574 1.016-0.7366 0.5588-0.7366 1.3208v0.8382h7.9248v2.7686h-11.582z"
         id="path745" />
    </g>
    <g
       aria-label="OITSWILLIAMV2      VORON 2.4A PRINTER, BUT ALSO A COMPUTER"
       id="g841"
       transform="translate(0.192345)">
      <path
         d="m 41.549,23.128 q 0,0.6731 -0.22437,1.2488 -0.22013,0.5715 -0.62654,0.9906 -0.4064,0.4191 -0.9779,0.65617 -0.5715,0.23283 -1.27,0.23283 -0.69427,0 -1.2658,-0.23283 -0.5715,-0.23707 -0.98214,-0.65617 -0.4064,-0.4191 -0.63077,-0.9906 -0.22437,-0.57574 -0.22437,-1.2488 0,-0.6731 0.22437,-1.2446 0.22437,-0.57574 0.63077,-0.99484 0.41064,-0.4191 0.98214,-0.65194 0.5715,-0.23707 1.2658,-0.23707 0.46567,0 0.8763,0.11007 0.41064,0.10583 0.75354,0.3048 0.3429,0.19473 0.61384,0.47837 0.27517,0.2794 0.46567,0.62654 0.1905,0.34713 0.28787,0.75354 0.1016,0.4064 0.1016,0.85514 z m -1.1642,0 q 0,-0.50377 -0.13547,-0.9017 -0.13547,-0.40217 -0.38524,-0.68157 -0.24977,-0.2794 -0.6096,-0.42757 -0.3556,-0.14817 -0.80434,-0.14817 -0.44874,0 -0.80857,0.14817 -0.3556,0.14817 -0.6096,0.42757 -0.24977,0.2794 -0.38524,0.68157 -0.13547,0.39794 -0.13547,0.9017 0,0.50377 0.13547,0.90594 0.13547,0.39794 0.38524,0.67734 0.254,0.27517 0.6096,0.42334 0.35983,0.14817 0.80857,0.14817 0.44874,0 0.80434,-0.14817 0.35984,-0.14817 0.6096,-0.42334 0.24977,-0.2794 0.38524,-0.67734 0.13547,-0.40217 0.13547,-0.90594 z"
         id="path749" />
      <path
         d="M 43.7,26.189 H 42.557 V 20.0676 H 43.7 Z"
         id="path751" />
      <path
         d="m 49.347,21.003 h -1.8457 v 5.1859 H 46.3625 V 21.003 h -1.8457 v -0.93557 h 4.8303 z"
         id="path753" />
      <path
         d="m 53.391,21.181 q -0.0508,0.0889 -0.11007,0.13123 -0.05503,0.0381 -0.1397,0.0381 -0.0889,0 -0.19473,-0.0635 Q 52.8449,21.2191 52.70097,21.13866 52.55704,21.05823 52.3623,20.99473 52.1718,20.927 51.90933,20.927 q -0.23707,0 -0.41487,0.05927 -0.1778,0.05503 -0.30057,0.15663 -0.11853,0.1016 -0.1778,0.24553 -0.05927,0.1397 -0.05927,0.30903 0,0.2159 0.11853,0.35984 0.12277,0.14393 0.32174,0.24553 0.19897,0.1016 0.45297,0.18203 0.254,0.08043 0.5207,0.17357 0.2667,0.0889 0.5207,0.21167 0.254,0.11853 0.45297,0.3048 0.19897,0.18203 0.3175,0.44874 0.12277,0.2667 0.12277,0.6477 0,0.41487 -0.14393,0.77894 -0.1397,0.35984 -0.41487,0.63077 -0.27093,0.2667 -0.66464,0.42334 -0.3937,0.1524 -0.9017,0.1524 -0.2921,0 -0.57574,-0.05927 -0.28363,-0.05503 -0.5461,-0.16087 -0.25823,-0.10583 -0.48684,-0.254 -0.22861,-0.14817 -0.4064,-0.3302 l 0.33444,-0.5461 q 0.04233,-0.05927 0.11007,-0.09737 0.06773,-0.04233 0.14393,-0.04233 0.10583,0 0.2286,0.0889 0.12277,0.08467 0.2921,0.1905 0.16933,0.10583 0.3937,0.19473 0.2286,0.08467 0.5461,0.08467 0.48684,0 0.75354,-0.2286 0.2667,-0.23283 0.2667,-0.66464 0,-0.2413 -0.12277,-0.3937 -0.11853,-0.1524 -0.3175,-0.254 -0.19897,-0.10583 -0.45297,-0.1778 -0.254,-0.07197 -0.51647,-0.15663 -0.26247,-0.08467 -0.51647,-0.2032 -0.254,-0.11853 -0.45297,-0.30903 -0.19897,-0.1905 -0.32173,-0.47414 -0.11853,-0.28787 -0.11853,-0.70697 0,-0.33443 0.13123,-0.65194 0.13547,-0.3175 0.38947,-0.56304 0.254,-0.24554 0.62654,-0.3937 0.37253,-0.14817 0.85514,-0.14817 0.54187,0 0.99907,0.16933 0.4572,0.16933 0.77894,0.47414 z"
         id="path755" />
      <path
         d="m 62.89,20.068 -1.9008,6.1214 h -1.0287 l -1.3377,-4.1826 q -0.05503,-0.1524 -0.1016,-0.37254 -0.0254,0.10583 -0.0508,0.19897 -0.0254,0.09313 -0.05503,0.17357 l -1.3504,4.1826 h -1.0329 l -1.8965,-6.1214 h 0.9525 q 0.14817,0 0.24554,0.07197 0.1016,0.06773 0.13547,0.18627 l 1.0414,3.6618 q 0.03387,0.13547 0.0635,0.29633 0.03387,0.15663 0.06773,0.3302 0.03387,-0.1778 0.07197,-0.33443 0.04233,-0.15663 0.0889,-0.2921 l 1.2023,-3.6618 q 0.03387,-0.09737 0.13123,-0.1778 0.1016,-0.08043 0.24553,-0.08043 h 0.33444 q 0.14817,0 0.2413,0.07197 0.09313,0.07197 0.1397,0.18627 l 1.198,3.6618 q 0.0889,0.26247 0.16087,0.60537 0.05503,-0.33444 0.12277,-0.60537 l 1.0414,-3.6618 q 0.0254,-0.10583 0.127,-0.18203 0.10583,-0.0762 0.24977,-0.0762 z"
         id="path757" />
      <path
         d="m 64.785,26.189 h -1.143 v -6.1214 h 1.143 z"
         id="path759" />
      <path
         d="m 69.741,25.249 v 0.9398 h -3.5856 v -6.1214 h 1.1388 v 5.1816 z"
         id="path761" />
      <path
         d="m 74.139,25.249 v 0.9398 h -3.5856 v -6.1214 h 1.1388 v 5.1816 z"
         id="path763" />
      <path
         d="m 76.096,26.189 h -1.143 v -6.1214 h 1.143 z"
         id="path765" />
      <path
         d="M 80.7,23.878 79.95493,21.8418 Q 79.8999,21.70633 79.84063,21.52007 79.78136,21.3338 79.7221,21.1179 q -0.05503,0.2159 -0.1143,0.4064 -0.05927,0.18627 -0.1143,0.32597 l -0.74084,2.0278 z m 2.0108,2.3114 h -0.88054 q -0.14817,0 -0.2413,-0.07197 -0.09313,-0.0762 -0.1397,-0.18627 l -0.4572,-1.2488 h -2.5358 l -0.4572,1.2488 q -0.03387,0.09737 -0.13123,0.1778 -0.09737,0.08043 -0.2413,0.08043 h -0.889 l 2.4088,-6.1214 h 1.1599 z"
         id="path767" />
      <path
         d="m 89.991,20.068 v 6.1214 h -1.0033 v -3.9539 q 0,-0.23707 0.0254,-0.51224 l -1.85,3.4756 q -0.13123,0.24977 -0.40217,0.24977 h -0.16087 q -0.27093,0 -0.40217,-0.24977 l -1.8711,-3.4883 q 0.0127,0.1397 0.02117,0.27517 0.0085,0.13547 0.0085,0.24977 v 3.9539 h -1.0033 V 20.068 h 0.85937 q 0.0762,0 0.13123,0.0042 0.05503,0.0042 0.09737,0.02117 0.04657,0.01693 0.08043,0.05503 0.0381,0.0381 0.07197,0.1016 l 1.833,3.3994 q 0.07197,0.13547 0.13123,0.2794 0.0635,0.14393 0.12277,0.29633 0.05927,-0.15663 0.12277,-0.30057 0.0635,-0.14817 0.13547,-0.28363 l 1.8076,-3.3909 q 0.03387,-0.0635 0.07197,-0.1016 0.0381,-0.0381 0.08043,-0.05503 0.04657,-0.01693 0.1016,-0.02117 0.05503,-0.0042 0.13123,-0.0042 z"
         id="path769" />
      <path
         d="m 96.602,20.068 -2.4723,6.1214 H 93.101 L 90.6287,20.068 h 0.9144 q 0.14817,0 0.2413,0.07197 0.09313,0.07197 0.1397,0.18627 l 1.4436,3.7338 q 0.07197,0.18203 0.13547,0.40217 0.06773,0.2159 0.127,0.45297 0.0508,-0.23707 0.11007,-0.45297 0.05927,-0.22013 0.13123,-0.40217 l 1.4351,-3.7338 q 0.03387,-0.09737 0.13123,-0.1778 0.1016,-0.08043 0.24554,-0.08043 z"
         id="path771" />
      <path
         d="m 100.72,25.215 q 0.16934,0 0.2667,0.09737 0.1016,0.09313 0.1016,0.24977 v 0.62654 h -4.1995 v -0.34714 q 0,-0.10583 0.04233,-0.22013 0.04657,-0.11853 0.14393,-0.21167 l 1.8584,-1.8627 q 0.23284,-0.23707 0.41487,-0.45297 0.18627,-0.2159 0.30903,-0.42757 0.12277,-0.21167 0.18627,-0.42757 0.06773,-0.22013 0.06773,-0.46144 0,-0.22013 -0.0635,-0.38524 -0.0635,-0.16933 -0.18203,-0.28363 -0.1143,-0.1143 -0.2794,-0.16933 -0.16087,-0.05927 -0.36407,-0.05927 -0.18627,0 -0.34714,0.05503 -0.15663,0.0508 -0.2794,0.14817 -0.12277,0.09313 -0.20743,0.22013 -0.08467,0.127 -0.127,0.2794 -0.07197,0.19473 -0.18627,0.25823 -0.1143,0.0635 -0.3302,0.02963 l -0.55034,-0.09737 q 0.0635,-0.44027 0.24553,-0.77047 0.18203,-0.33444 0.45297,-0.55457 0.27517,-0.22437 0.62654,-0.33443 0.3556,-0.1143 0.762,-0.1143 0.42333,0 0.7747,0.127 0.35137,0.12277 0.60114,0.35137 0.24976,0.2286 0.38946,0.55034 0.1397,0.32174 0.1397,0.71544 0,0.33867 -0.1016,0.62654 -0.0974,0.28787 -0.2667,0.55034 -0.1651,0.26247 -0.38947,0.508 -0.22436,0.24554 -0.4699,0.49954 l -1.3801,1.4097 q 0.19897,-0.05927 0.3937,-0.0889 0.19897,-0.03387 0.37677,-0.03387 z"
         id="path773" />
      <path
         d="m 119.39,20.068 -2.4723,6.1214 h -1.0287 l -2.4723,-6.1214 h 0.91441 q 0.14816,0 0.2413,0.07197 0.0931,0.07197 0.1397,0.18627 l 1.4436,3.7338 q 0.072,0.18203 0.13547,0.40217 0.0677,0.2159 0.127,0.45297 0.0508,-0.23707 0.11006,-0.45297 0.0593,-0.22013 0.13124,-0.40217 l 1.4351,-3.7338 q 0.0339,-0.09737 0.13124,-0.1778 0.1016,-0.08043 0.24553,-0.08043 z"
         id="path775" />
      <path
         d="m 125.67,23.128 q 0,0.6731 -0.22437,1.2488 -0.22014,0.5715 -0.62654,0.9906 -0.4064,0.4191 -0.9779,0.65617 -0.5715,0.23283 -1.27,0.23283 -0.69427,0 -1.2658,-0.23283 -0.5715,-0.23707 -0.98214,-0.65617 -0.4064,-0.4191 -0.63076,-0.9906 -0.22437,-0.57574 -0.22437,-1.2488 0,-0.6731 0.22437,-1.2446 0.22436,-0.57574 0.63076,-0.99484 0.41064,-0.4191 0.98214,-0.65194 0.5715,-0.23707 1.2658,-0.23707 0.46567,0 0.87631,0.11007 0.41063,0.10583 0.75353,0.3048 0.3429,0.19473 0.61384,0.47837 0.27517,0.2794 0.46567,0.62654 0.1905,0.34713 0.28787,0.75354 0.1016,0.4064 0.1016,0.85514 z m -1.1642,0 q 0,-0.50377 -0.13546,-0.9017 -0.13547,-0.40217 -0.38524,-0.68157 -0.24977,-0.2794 -0.6096,-0.42757 -0.3556,-0.14817 -0.80434,-0.14817 -0.44873,0 -0.80857,0.14817 -0.3556,0.14817 -0.6096,0.42757 -0.24977,0.2794 -0.38523,0.68157 -0.13547,0.39794 -0.13547,0.9017 0,0.50377 0.13547,0.90594 0.13546,0.39794 0.38523,0.67734 0.254,0.27517 0.6096,0.42334 0.35984,0.14817 0.80857,0.14817 0.44874,0 0.80434,-0.14817 0.35983,-0.14817 0.6096,-0.42334 0.24977,-0.2794 0.38524,-0.67734 0.13546,-0.40217 0.13546,-0.90594 z"
         id="path777" />
      <path
         d="m 128.53,22.98 q 0.32174,0 0.5588,-0.08043 0.24131,-0.08043 0.39371,-0.22013 0.15663,-0.14393 0.23283,-0.33867 0.0762,-0.19474 0.0762,-0.42757 0,-0.46567 -0.30903,-0.71544 -0.3048,-0.24977 -0.93557,-0.24977 h -0.72814 v 2.032 z m 2.9295,3.2089 h -1.0287 q -0.2921,0 -0.42334,-0.2286 l -1.2869,-1.96 q -0.072,-0.11007 -0.16086,-0.15663 -0.0847,-0.04657 -0.254,-0.04657 h -0.48684 v 2.3918 h -1.1388 v -6.1214 h 1.8669 q 0.6223,0 1.0668,0.13123 0.44874,0.127 0.73237,0.35983 0.28787,0.23284 0.42333,0.5588 0.13547,0.32174 0.13547,0.7112 0,0.30904 -0.0931,0.5842 -0.0889,0.27517 -0.26247,0.49954 -0.16933,0.22437 -0.42333,0.3937 -0.24977,0.16933 -0.57151,0.2667 0.11007,0.0635 0.2032,0.1524 0.0931,0.08467 0.16934,0.2032 z"
         id="path779" />
      <path
         d="m 137.87,23.128 q 0,0.6731 -0.22437,1.2488 -0.22013,0.5715 -0.62653,0.9906 -0.4064,0.4191 -0.97791,0.65617 -0.5715,0.23283 -1.27,0.23283 -0.69427,0 -1.2658,-0.23283 -0.5715,-0.23707 -0.98214,-0.65617 -0.4064,-0.4191 -0.63077,-0.9906 -0.22437,-0.57574 -0.22437,-1.2488 0,-0.6731 0.22437,-1.2446 0.22437,-0.57574 0.63077,-0.99484 0.41064,-0.4191 0.98214,-0.65194 0.5715,-0.23707 1.2658,-0.23707 0.46567,0 0.8763,0.11007 0.41064,0.10583 0.75354,0.3048 0.3429,0.19473 0.61384,0.47837 0.27516,0.2794 0.46566,0.62654 0.1905,0.34713 0.28787,0.75354 0.1016,0.4064 0.1016,0.85514 z m -1.1642,0 q 0,-0.50377 -0.13547,-0.9017 -0.13546,-0.40217 -0.38523,-0.68157 -0.24977,-0.2794 -0.6096,-0.42757 -0.3556,-0.14817 -0.80434,-0.14817 -0.44874,0 -0.80857,0.14817 -0.3556,0.14817 -0.6096,0.42757 -0.24977,0.2794 -0.38524,0.68157 -0.13546,0.39794 -0.13546,0.9017 0,0.50377 0.13546,0.90594 0.13547,0.39794 0.38524,0.67734 0.254,0.27517 0.6096,0.42334 0.35983,0.14817 0.80857,0.14817 0.44874,0 0.80434,-0.14817 0.35983,-0.14817 0.6096,-0.42334 0.24977,-0.2794 0.38523,-0.67734 0.13547,-0.40217 0.13547,-0.90594 z"
         id="path781" />
      <path
         d="m 144.04,20.068 v 6.1214 h -0.5842 q -0.13547,0 -0.2286,-0.04233 -0.0889,-0.04657 -0.17357,-0.1524 l -3.1962,-4.0809 q 0.0254,0.2794 0.0254,0.51647 v 3.7592 h -1.0033 v -6.1214 h 0.5969 q 0.072,0 0.12277,0.0085 0.055,0.0042 0.0931,0.0254 0.0423,0.01693 0.0804,0.05503 0.0381,0.03387 0.0847,0.09313 l 3.2089,4.0979 q -0.0127,-0.14817 -0.0212,-0.2921 -0.008,-0.14393 -0.008,-0.2667 v -3.7211 z"
         id="path783" />
      <path
         d="m 150.94,25.215 q 0.16934,0 0.2667,0.09737 0.1016,0.09313 0.1016,0.24977 v 0.62654 h -4.1995 v -0.34714 q 0,-0.10583 0.0423,-0.22013 0.0466,-0.11853 0.14393,-0.21167 l 1.8584,-1.8627 q 0.23283,-0.23707 0.41487,-0.45297 0.18627,-0.2159 0.30903,-0.42757 0.12277,-0.21167 0.18627,-0.42757 0.0677,-0.22013 0.0677,-0.46144 0,-0.22013 -0.0635,-0.38524 -0.0635,-0.16933 -0.18203,-0.28363 -0.1143,-0.1143 -0.2794,-0.16933 -0.16087,-0.05927 -0.36407,-0.05927 -0.18627,0 -0.34713,0.05503 -0.15664,0.0508 -0.27941,0.14817 -0.12276,0.09313 -0.20743,0.22013 -0.0847,0.127 -0.127,0.2794 -0.072,0.19473 -0.18627,0.25823 -0.1143,0.0635 -0.3302,0.02963 l -0.55033,-0.09737 q 0.0635,-0.44027 0.24553,-0.77047 0.18203,-0.33444 0.45297,-0.55457 0.27517,-0.22437 0.62653,-0.33443 0.35561,-0.1143 0.76201,-0.1143 0.42333,0 0.7747,0.127 0.35137,0.12277 0.60114,0.35137 0.24976,0.2286 0.38946,0.55034 0.1397,0.32174 0.1397,0.71544 0,0.33867 -0.1016,0.62654 -0.0974,0.28787 -0.2667,0.55034 -0.1651,0.26247 -0.38947,0.508 -0.22436,0.24554 -0.4699,0.49954 l -1.3801,1.4097 q 0.19897,-0.05927 0.3937,-0.0889 0.19897,-0.03387 0.37677,-0.03387 z"
         id="path785" />
      <path
         d="m 152.06,25.613 q 0,-0.13123 0.0466,-0.24977 0.0508,-0.11853 0.13547,-0.2032 0.0847,-0.08467 0.2032,-0.13547 0.11853,-0.0508 0.254,-0.0508 0.13546,0 0.24976,0.0508 0.11854,0.0508 0.20321,0.13547 0.0889,0.08467 0.1397,0.2032 0.0508,0.11853 0.0508,0.24977 0,0.13547 -0.0508,0.254 -0.0508,0.1143 -0.1397,0.19897 -0.0847,0.08467 -0.20321,0.13123 -0.1143,0.0508 -0.24976,0.0508 -0.13547,0 -0.254,-0.0508 -0.11854,-0.04657 -0.2032,-0.13123 Q 152.15737,25.9813 152.1066,25.867 152.06,25.74847 152.06,25.613 Z"
         id="path787" />
      <path
         d="m 156.73,23.882 v -2.0024 q 0,-0.28363 0.0381,-0.62654 l -1.9008,2.6289 z m 1.6806,0 v 0.60537 q 0,0.08467 -0.055,0.14817 -0.055,0.05927 -0.15663,0.05927 h -0.55881 v 1.4944 h -0.91017 v -1.4944 h -2.5823 q -0.10583,0 -0.18627,-0.0635 -0.0804,-0.06773 -0.1016,-0.1651 l -0.11006,-0.52917 2.8998,-3.8735 h 0.9906 v 3.8185 z"
         id="path789" />
    </g>
    <g
       aria-label="AIO Entertainment"
       id="text1907"
       style="font-size:8.46667px;line-height:1.25;font-family:Lato;-inkscape-font-specification:'Lato Bold';font-feature-settings:'pnum' on, 'salt' on;stroke-width:0.0700035">
      <path
         d="m 65.321196,33.966633 -0.745067,-2.036234 q -0.05503,-0.135467 -0.1143,-0.321733 -0.05927,-0.186267 -0.118533,-0.402167 -0.05503,0.2159 -0.1143,0.4064 -0.05927,0.186267 -0.1143,0.325967 l -0.740834,2.027767 z m 2.010834,2.311401 h -0.880533 q -0.148167,0 -0.241301,-0.07197 -0.09313,-0.0762 -0.1397,-0.186267 l -0.4572,-1.248834 h -2.535767 l -0.457201,1.248834 q -0.03387,0.09737 -0.131233,0.1778 -0.09737,0.08043 -0.2413,0.08043 h -0.889001 l 2.408768,-6.121402 h 1.159934 z"
         id="path4366" />
      <path
         d="M 69.110031,36.278034 H 67.96703 v -6.121402 h 1.143001 z"
         id="path4368" />
      <path
         d="m 76.315161,33.217333 q 0,0.6731 -0.224367,1.248834 -0.220133,0.5715 -0.626533,0.9906 -0.406401,0.4191 -0.977901,0.656167 -0.5715,0.232834 -1.27,0.232834 -0.694267,0 -1.265767,-0.232834 -0.571501,-0.237067 -0.982134,-0.656167 -0.4064,-0.4191 -0.630767,-0.9906 -0.224367,-0.575734 -0.224367,-1.248834 0,-0.6731 0.224367,-1.244601 0.224367,-0.575733 0.630767,-0.994833 0.410633,-0.4191 0.982134,-0.651934 0.5715,-0.237067 1.265767,-0.237067 0.465667,0 0.8763,0.110067 0.410634,0.105833 0.753534,0.3048 0.3429,0.194734 0.613833,0.478367 0.275167,0.2794 0.465667,0.626534 0.1905,0.347133 0.287867,0.753533 0.1016,0.4064 0.1016,0.855134 z m -1.164167,0 q 0,-0.503767 -0.135467,-0.9017 -0.135467,-0.402167 -0.385233,-0.681567 -0.249767,-0.2794 -0.609601,-0.427567 -0.3556,-0.148167 -0.804333,-0.148167 -0.448734,0 -0.808567,0.148167 -0.3556,0.148167 -0.609601,0.427567 -0.249766,0.2794 -0.385233,0.681567 -0.135467,0.397933 -0.135467,0.9017 0,0.503767 0.135467,0.905934 0.135467,0.397933 0.385233,0.677333 0.254001,0.275167 0.609601,0.423334 0.359833,0.148167 0.808567,0.148167 0.448733,0 0.804333,-0.148167 0.359834,-0.148167 0.609601,-0.423334 0.249766,-0.2794 0.385233,-0.677333 0.135467,-0.402167 0.135467,-0.905934 z"
         id="path4370" />
      <path
         d="m 80.518867,31.062565 v 1.697568 h 2.142068 v 0.8763 h -2.142068 v 1.731434 h 2.717801 v 0.910167 h -3.860801 v -6.121402 h 3.860801 v 0.905933 z"
         id="path4372" />
      <path
         d="m 84.963878,32.468033 q 0.131234,-0.131234 0.275167,-0.2413 0.148167,-0.1143 0.309034,-0.1905 0.1651,-0.08043 0.351366,-0.122767 0.186267,-0.04657 0.4064,-0.04657 0.355601,0 0.630767,0.122767 0.275167,0.118533 0.457201,0.338667 0.186266,0.2159 0.2794,0.5207 0.09737,0.300567 0.09737,0.664633 v 2.764368 h -1.045633 v -2.764368 q 0,-0.397933 -0.182034,-0.613833 -0.182033,-0.220134 -0.554567,-0.220134 -0.270933,0 -0.508,0.122767 -0.237067,0.122767 -0.448733,0.334434 v 3.141134 h -1.045634 v -4.343402 h 0.639233 q 0.203201,0 0.266701,0.190501 z"
         id="path4374" />
      <path
         d="m 90.149708,36.345768 q -0.567267,0 -0.872068,-0.317501 -0.300566,-0.321733 -0.300566,-0.884767 v -2.425701 h -0.4445 q -0.08467,0 -0.143934,-0.05503 -0.05927,-0.05503 -0.05927,-0.1651 v -0.414867 l 0.698501,-0.1143 0.220133,-1.185334 q 0.02117,-0.08467 0.08043,-0.131233 0.05927,-0.04657 0.1524,-0.04657 h 0.541866 v 1.367367 h 1.159934 v 0.745067 h -1.159934 v 2.353735 q 0,0.2032 0.09737,0.3175 0.1016,0.1143 0.275167,0.1143 0.09737,0 0.160867,-0.02117 0.06773,-0.0254 0.1143,-0.0508 0.0508,-0.0254 0.0889,-0.04657 0.0381,-0.0254 0.0762,-0.0254 0.04657,0 0.0762,0.0254 0.02963,0.02117 0.0635,0.06773 l 0.313267,0.508 q -0.2286,0.1905 -0.524934,0.287867 -0.296333,0.09737 -0.613833,0.09737 z"
         id="path4376" />
      <path
         d="m 94.615875,33.6068 q 0,-0.2032 -0.05927,-0.381 -0.05503,-0.182034 -0.169334,-0.3175 -0.1143,-0.135467 -0.2921,-0.211667 -0.173566,-0.08043 -0.4064,-0.08043 -0.452967,0 -0.715434,0.258234 -0.258233,0.258233 -0.3302,0.732367 z m -1.9939,0.630767 q 0.0254,0.334433 0.118533,0.579967 0.09313,0.2413 0.245534,0.402166 0.1524,0.156634 0.359833,0.237067 0.211667,0.0762 0.465667,0.0762 0.254,0 0.436033,-0.05927 0.186267,-0.05927 0.321734,-0.131234 0.1397,-0.07197 0.2413,-0.131233 0.105833,-0.05927 0.2032,-0.05927 0.131233,0 0.194733,0.09737 l 0.300567,0.381 q -0.173567,0.2032 -0.389467,0.3429 -0.2159,0.135467 -0.452966,0.220134 -0.232834,0.08043 -0.478367,0.1143 -0.2413,0.03387 -0.469901,0.03387 -0.452966,0 -0.842433,-0.148166 -0.389467,-0.152401 -0.677334,-0.444501 -0.287867,-0.296333 -0.452967,-0.728133 -0.1651,-0.436034 -0.1651,-1.007534 0,-0.4445 0.143934,-0.833967 0.143933,-0.3937 0.410633,-0.681567 0.270934,-0.2921 0.656167,-0.461433 0.389467,-0.169334 0.8763,-0.169334 0.410634,0 0.757767,0.131234 0.347134,0.131233 0.596901,0.385233 0.249766,0.249767 0.389466,0.618067 0.143934,0.364067 0.143934,0.833967 0,0.237067 -0.0508,0.321733 -0.0508,0.08043 -0.194734,0.08043 z"
         id="path4378" />
      <path
         d="m 97.325214,32.688166 q 0.2032,-0.389467 0.4826,-0.6096 0.2794,-0.224367 0.6604,-0.224367 0.300567,0 0.482601,0.131234 l -0.06773,0.783166 q -0.02117,0.0762 -0.0635,0.110067 -0.0381,0.02963 -0.105833,0.02963 -0.0635,0 -0.1905,-0.02117 -0.122767,-0.02117 -0.2413,-0.02117 -0.173567,0 -0.309034,0.0508 -0.135466,0.0508 -0.245533,0.148167 -0.105834,0.09313 -0.1905,0.2286 -0.08043,0.135467 -0.1524,0.309033 v 2.675468 h -1.045634 v -4.343402 h 0.613834 q 0.160866,0 0.224366,0.05927 0.0635,0.05503 0.08467,0.2032 z"
         id="path4380" />
      <path
         d="m 100.94471,36.345768 q -0.56727,0 -0.87207,-0.317501 -0.300564,-0.321733 -0.300564,-0.884767 v -2.425701 h -0.4445 q -0.08467,0 -0.143934,-0.05503 -0.05927,-0.05503 -0.05927,-0.1651 v -0.414867 l 0.698501,-0.1143 0.220134,-1.185334 q 0.0212,-0.08467 0.0804,-0.131233 0.0593,-0.04657 0.1524,-0.04657 h 0.54187 v 1.367367 h 1.15993 v 0.745067 h -1.15993 v 2.353735 q 0,0.2032 0.0974,0.3175 0.1016,0.1143 0.27516,0.1143 0.0974,0 0.16087,-0.02117 0.0677,-0.0254 0.1143,-0.0508 0.0508,-0.0254 0.0889,-0.04657 0.0381,-0.0254 0.0762,-0.0254 0.0466,0 0.0762,0.0254 0.0296,0.02117 0.0635,0.06773 l 0.31327,0.508 q -0.2286,0.1905 -0.52494,0.287867 -0.29633,0.09737 -0.61383,0.09737 z"
         id="path4382" />
      <path
         d="m 104.94097,34.423833 q -0.45296,0.02117 -0.762,0.08043 -0.30903,0.05503 -0.4953,0.143933 -0.18626,0.0889 -0.2667,0.207434 -0.0804,0.118533 -0.0804,0.258233 0,0.275167 0.16087,0.3937 0.1651,0.118534 0.42756,0.118534 0.32174,0 0.55457,-0.1143 0.23707,-0.118534 0.46143,-0.355601 z m -2.39606,-1.883834 q 0.7493,-0.6858 1.8034,-0.6858 0.381,0 0.68156,0.127 0.30057,0.122767 0.508,0.347134 0.20744,0.220133 0.31327,0.529167 0.11007,0.309033 0.11007,0.677333 v 2.743201 h -0.47414 q -0.14816,0 -0.2286,-0.04233 -0.0804,-0.04657 -0.127,-0.182034 l -0.0931,-0.313266 q -0.1651,0.148166 -0.32173,0.262466 -0.15664,0.110067 -0.32597,0.186267 -0.16933,0.0762 -0.36407,0.1143 -0.1905,0.04233 -0.42333,0.04233 -0.27517,0 -0.508,-0.07197 -0.23283,-0.0762 -0.40217,-0.224367 -0.16933,-0.148167 -0.26246,-0.3683 -0.0931,-0.220133 -0.0931,-0.512234 0,-0.1651 0.055,-0.325966 0.055,-0.1651 0.1778,-0.313267 0.127,-0.148167 0.32596,-0.2794 0.19897,-0.131234 0.48684,-0.2286 0.2921,-0.09737 0.67733,-0.156634 0.38523,-0.0635 0.88053,-0.0762 v -0.254 q 0,-0.436033 -0.18626,-0.643467 -0.18627,-0.211667 -0.53764,-0.211667 -0.254,0 -0.42333,0.05927 -0.1651,0.05927 -0.2921,0.135467 -0.127,0.07197 -0.23283,0.131233 -0.1016,0.05927 -0.2286,0.05927 -0.11007,0 -0.18627,-0.05503 -0.0762,-0.05927 -0.12277,-0.135467 z"
         id="path4384" />
      <path
         d="m 108.02707,31.934632 v 4.343402 h -1.04986 v -4.343402 z m 0.14394,-1.265767 q 0,0.135467 -0.055,0.254 -0.055,0.118534 -0.14816,0.207434 -0.0889,0.0889 -0.21167,0.143933 -0.12277,0.0508 -0.26247,0.0508 -0.13546,0 -0.25823,-0.0508 -0.11853,-0.05503 -0.20743,-0.143933 -0.0889,-0.0889 -0.14394,-0.207434 -0.0508,-0.118533 -0.0508,-0.254 0,-0.1397 0.0508,-0.262466 0.055,-0.122767 0.14394,-0.211667 0.0889,-0.0889 0.20743,-0.1397 0.12277,-0.05503 0.25823,-0.05503 0.1397,0 0.26247,0.05503 0.12277,0.0508 0.21167,0.1397 0.0931,0.0889 0.14816,0.211667 0.055,0.122766 0.055,0.262466 z"
         id="path4386" />
      <path
         d="m 110.07177,32.468033 q 0.13123,-0.131234 0.27517,-0.2413 0.14816,-0.1143 0.30903,-0.1905 0.1651,-0.08043 0.35137,-0.122767 0.18627,-0.04657 0.4064,-0.04657 0.3556,0 0.63077,0.122767 0.27516,0.118533 0.4572,0.338667 0.18626,0.2159 0.2794,0.5207 0.0974,0.300567 0.0974,0.664633 v 2.764368 h -1.04563 v -2.764368 q 0,-0.397933 -0.18203,-0.613833 -0.18204,-0.220134 -0.55457,-0.220134 -0.27094,0 -0.508,0.122767 -0.23707,0.122767 -0.44874,0.334434 v 3.141134 h -1.04563 v -4.343402 h 0.63923 q 0.2032,0 0.2667,0.190501 z"
         id="path4388" />
      <path
         d="m 113.86907,36.278034 v -4.343402 h 0.63923 q 0.2032,0 0.2667,0.190501 l 0.0677,0.321733 q 0.1143,-0.127 0.23707,-0.232833 0.127,-0.105834 0.2667,-0.182034 0.14393,-0.0762 0.3048,-0.118533 0.1651,-0.04657 0.35983,-0.04657 0.41064,0 0.6731,0.224367 0.2667,0.220133 0.39794,0.588433 0.1016,-0.2159 0.254,-0.3683 0.1524,-0.156633 0.33443,-0.254 0.18204,-0.09737 0.38524,-0.143933 0.20743,-0.04657 0.41486,-0.04657 0.35984,0 0.63924,0.110067 0.2794,0.110067 0.4699,0.321733 0.1905,0.211667 0.28786,0.516467 0.1016,0.3048 0.1016,0.6985 v 2.764368 h -1.04563 v -2.764368 q 0,-0.414866 -0.18203,-0.6223 -0.18204,-0.211667 -0.5334,-0.211667 -0.16087,0 -0.30057,0.05503 -0.13547,0.05503 -0.2413,0.160867 -0.1016,0.1016 -0.16087,0.258233 -0.0593,0.156633 -0.0593,0.359833 v 2.764368 h -1.04987 v -2.764368 q 0,-0.436033 -0.1778,-0.635 -0.17357,-0.198967 -0.51224,-0.198967 -0.2286,0 -0.42756,0.1143 -0.19474,0.110067 -0.36407,0.304801 v 3.179234 z"
         id="path4390" />
      <path
         d="m 123.75813,33.6068 q 0,-0.2032 -0.0593,-0.381 -0.055,-0.182034 -0.16934,-0.3175 -0.1143,-0.135467 -0.2921,-0.211667 -0.17356,-0.08043 -0.4064,-0.08043 -0.45296,0 -0.71543,0.258234 -0.25823,0.258233 -0.3302,0.732367 z m -1.9939,0.630767 q 0.0254,0.334433 0.11854,0.579967 0.0931,0.2413 0.24553,0.402166 0.1524,0.156634 0.35983,0.237067 0.21167,0.0762 0.46567,0.0762 0.254,0 0.43603,-0.05927 0.18627,-0.05927 0.32174,-0.131234 0.1397,-0.07197 0.2413,-0.131233 0.10583,-0.05927 0.2032,-0.05927 0.13123,0 0.19473,0.09737 l 0.30057,0.381 q -0.17357,0.2032 -0.38947,0.3429 -0.2159,0.135467 -0.45297,0.220134 -0.23283,0.08043 -0.47836,0.1143 -0.2413,0.03387 -0.4699,0.03387 -0.45297,0 -0.84244,-0.148166 -0.38946,-0.152401 -0.67733,-0.444501 -0.28787,-0.296333 -0.45297,-0.728133 -0.1651,-0.436034 -0.1651,-1.007534 0,-0.4445 0.14394,-0.833967 0.14393,-0.3937 0.41063,-0.681567 0.27093,-0.2921 0.65617,-0.461433 0.38946,-0.169334 0.8763,-0.169334 0.41063,0 0.75776,0.131234 0.34714,0.131233 0.5969,0.385233 0.24977,0.249767 0.38947,0.618067 0.14393,0.364067 0.14393,0.833967 0,0.237067 -0.0508,0.321733 -0.0508,0.08043 -0.19473,0.08043 z"
         id="path4392" />
      <path
         d="m 126.45901,32.468033 q 0.13123,-0.131234 0.27516,-0.2413 0.14817,-0.1143 0.30904,-0.1905 0.1651,-0.08043 0.35136,-0.122767 0.18627,-0.04657 0.4064,-0.04657 0.3556,0 0.63077,0.122767 0.27517,0.118533 0.4572,0.338667 0.18627,0.2159 0.2794,0.5207 0.0974,0.300567 0.0974,0.664633 v 2.764368 h -1.04564 v -2.764368 q 0,-0.397933 -0.18203,-0.613833 -0.18203,-0.220134 -0.55457,-0.220134 -0.27093,0 -0.508,0.122767 -0.23706,0.122767 -0.44873,0.334434 v 3.141134 h -1.04564 v -4.343402 h 0.63924 q 0.2032,0 0.2667,0.190501 z"
         id="path4394" />
      <path
         d="m 131.64484,36.345768 q -0.56727,0 -0.87207,-0.317501 -0.30057,-0.321733 -0.30057,-0.884767 v -2.425701 h -0.4445 q -0.0847,0 -0.14393,-0.05503 -0.0593,-0.05503 -0.0593,-0.1651 v -0.414867 l 0.6985,-0.1143 0.22014,-1.185334 q 0.0212,-0.08467 0.0804,-0.131233 0.0593,-0.04657 0.1524,-0.04657 h 0.54187 v 1.367367 h 1.15993 v 0.745067 h -1.15993 v 2.353735 q 0,0.2032 0.0974,0.3175 0.1016,0.1143 0.27517,0.1143 0.0974,0 0.16087,-0.02117 0.0677,-0.0254 0.1143,-0.0508 0.0508,-0.0254 0.0889,-0.04657 0.0381,-0.0254 0.0762,-0.0254 0.0466,0 0.0762,0.0254 0.0296,0.02117 0.0635,0.06773 l 0.31326,0.508 q -0.2286,0.1905 -0.52493,0.287867 -0.29633,0.09737 -0.61383,0.09737 z"
         id="path4396" />
    </g>
  </g>
</svg>
