<svg width="194.15mm" height="37.975mm" version="1.1" viewBox="0 0 194.15 37.975" xmlns="http://www.w3.org/2000/svg">
  <g font-weight="bold" stroke-width=".26458">
    <g aria-label="OITSWILLIAMV2">
      <path d="m7.7978 16.993q-1.3716 0-2.54-0.1778-1.143-0.1778-2.3876-0.6096-1.3462-0.4572-2.1082-1.4732-0.762-1.0414-0.762-2.5146v-7.2136q0-1.2192 0.5334-2.1844 0.5588-0.9652 1.4224-1.524 0.762-0.4826 1.8796-0.8128t2.0828-0.4064q0.889-0.0762 1.8796-0.0762 1.1684 0 2.032 0.1016 0.8636 0.0762 1.9304 0.3556 1.2192 0.3556 2.0066 0.8636t1.3208 1.4224q0.5588 0.9398 0.5588 2.2606v7.2136q0 1.3716-0.7366 2.3622-0.7112 0.9906-1.9812 1.4986-2.286 0.9144-5.1308 0.9144zm0.0508-2.8194q0.8382 0 1.397-0.0508 0.5842-0.0762 1.1938-0.254t0.9144-0.5842q0.3302-0.4318 0.3302-1.0668v-7.239q0-1.1684-0.9398-1.651-0.9398-0.508-2.921-0.508t-2.921 0.4826-0.9398 1.6764v7.239q0 0.635 0.3302 1.0668 0.3302 0.4064 0.9652 0.5842 0.6096 0.1778 1.1684 0.254 0.5842 0.0508 1.4224 0.0508z"/>
      <path d="m18.86 0.254h3.9624v16.485h-3.9624z"/>
      <path d="m30.211 3.0734h-5.08v-2.8194h14.097v2.8194h-5.0546v13.665h-3.9624z"/>
      <path d="m46.865 16.993q-2.3622 0-5.842-0.4572v-3.0226q4.318 0.6604 5.8928 0.6604 3.302 0 3.302-1.7018v-1.0668q0-0.8128-0.4826-1.2446-0.4572-0.4318-1.6764-0.4318h-1.9304q-5.4356 0-5.4356-4.318v-1.2192q0-2.159 1.8034-3.175t5.715-1.016q2.032 0 5.1562 0.3302v2.9464q-3.8354-0.4572-5.2832-0.4572-2.0066 0-2.6924 0.3302-0.7366 0.3556-0.7366 1.1176v1.1684q0 1.2954 2.1844 1.2954h1.9812q2.8194 0 4.0894 1.0414t1.27 3.175v1.0922q0 2.9464-2.1082 3.9878-1.016 0.5334-2.2606 0.7366-1.2192 0.2286-2.9464 0.2286z"/>
      <path d="m55.335 0.254h4.1148l3.2004 12.04 3.2004-12.04h3.683l3.4544 12.04 2.9464-12.04h4.0132l-5.2832 16.485h-3.9116l-3.1496-11.963-3.2512 11.963h-3.9116z"/>
      <path d="m81.913 0.254h3.9624v16.485h-3.9624z"/>
      <path d="m89.454 0.254h3.9624v13.665h8.1026v2.8194h-12.065z"/>
      <path d="m104.19 0.254h3.9624v13.665h8.1026v2.8194h-12.065z"/>
      <path d="m118.92 0.254h3.9624v16.485h-3.9624z"/>
      <path d="m130.83 0.254h4.826l5.9436 16.485h-4.0132l-1.4732-4.3434h-6.0198l-1.4478 4.3434h-3.9116zm4.4196 9.4996-2.0828-6.1976h-0.1016l-2.0828 6.1976z"/>
      <path d="m143.43 0.254h5.6388l4.064 11.786 4.0132-11.786h5.3086v16.485h-3.5814v-12.192h-0.0762l-4.1656 12.192h-3.175l-4.2926-12.192h-0.1016v12.192h-3.6322z"/>
      <path d="m164.22 0.254h4.0132l4.4196 13.183h0.1016l4.4196-13.183h3.9116l-6.096 16.485h-4.8514z"/>
      <path d="m182.56 12.979q0-1.3716 0.762-2.3876t1.9812-1.5494q0.9652-0.4318 2.2606-0.8636t2.0066-0.9144 0.7112-1.143v-2.1082q0-0.7874-0.635-1.0414-0.6858-0.2794-2.1336-0.2794-1.7526 0-4.6228 0.635v-2.794q2.54-0.5334 5.3086-0.5334 2.9972 0 4.445 0.9144 1.4732 0.9144 1.4732 3.048v2.286q0 1.2954-0.7874 2.2606-0.762 0.9398-1.9812 1.4224-1.143 0.4826-2.3368 0.8636-1.2954 0.4572-2.0574 1.016-0.7366 0.5588-0.7366 1.3208v0.8382h7.9248v2.7686h-11.582z"/>
    </g>
    <g aria-label="OITSWILLIAMV2      VORON 2.4A PRINTER, BUT ALSO A COMPUTER">
      <path d="m41.549 23.128q0 0.6731-0.22437 1.2488-0.22013 0.5715-0.62654 0.9906-0.4064 0.4191-0.9779 0.65617-0.5715 0.23283-1.27 0.23283-0.69427 0-1.2658-0.23283-0.5715-0.23707-0.98214-0.65617-0.4064-0.4191-0.63077-0.9906-0.22437-0.57574-0.22437-1.2488 0-0.6731 0.22437-1.2446 0.22437-0.57574 0.63077-0.99484 0.41064-0.4191 0.98214-0.65194 0.5715-0.23707 1.2658-0.23707 0.46567 0 0.8763 0.11007 0.41064 0.10583 0.75354 0.3048 0.3429 0.19473 0.61384 0.47837 0.27517 0.2794 0.46567 0.62654 0.1905 0.34713 0.28787 0.75354 0.1016 0.4064 0.1016 0.85514zm-1.1642 0q0-0.50377-0.13547-0.9017-0.13547-0.40217-0.38524-0.68157t-0.6096-0.42757q-0.3556-0.14817-0.80434-0.14817t-0.80857 0.14817q-0.3556 0.14817-0.6096 0.42757-0.24977 0.2794-0.38524 0.68157-0.13547 0.39794-0.13547 0.9017 0 0.50377 0.13547 0.90594 0.13547 0.39794 0.38524 0.67734 0.254 0.27517 0.6096 0.42334 0.35983 0.14817 0.80857 0.14817t0.80434-0.14817q0.35984-0.14817 0.6096-0.42334 0.24977-0.2794 0.38524-0.67734 0.13547-0.40217 0.13547-0.90594z"/>
      <path d="m43.7 26.189h-1.143v-6.1214h1.143z"/>
      <path d="m49.347 21.003h-1.8457v5.1859h-1.1388v-5.1859h-1.8457v-0.93557h4.8303z"/>
      <path d="m53.391 21.181q-0.0508 0.0889-0.11007 0.13123-0.05503 0.0381-0.1397 0.0381-0.0889 0-0.19473-0.0635-0.1016-0.06773-0.24553-0.14817-0.14393-0.08043-0.33867-0.14393-0.1905-0.06773-0.45297-0.06773-0.23707 0-0.41487 0.05927-0.1778 0.05503-0.30057 0.15663-0.11853 0.1016-0.1778 0.24553-0.05927 0.1397-0.05927 0.30903 0 0.2159 0.11853 0.35984 0.12277 0.14393 0.32174 0.24553t0.45297 0.18203 0.5207 0.17357q0.2667 0.0889 0.5207 0.21167 0.254 0.11853 0.45297 0.3048 0.19897 0.18203 0.3175 0.44874 0.12277 0.2667 0.12277 0.6477 0 0.41487-0.14393 0.77894-0.1397 0.35984-0.41487 0.63077-0.27093 0.2667-0.66464 0.42334-0.3937 0.1524-0.9017 0.1524-0.2921 0-0.57574-0.05927-0.28363-0.05503-0.5461-0.16087-0.25823-0.10583-0.48684-0.254t-0.4064-0.3302l0.33444-0.5461q0.04233-0.05927 0.11007-0.09737 0.06773-0.04233 0.14393-0.04233 0.10583 0 0.2286 0.0889 0.12277 0.08467 0.2921 0.1905t0.3937 0.19473q0.2286 0.08467 0.5461 0.08467 0.48684 0 0.75354-0.2286 0.2667-0.23283 0.2667-0.66464 0-0.2413-0.12277-0.3937-0.11853-0.1524-0.3175-0.254-0.19897-0.10583-0.45297-0.1778t-0.51647-0.15663q-0.26247-0.08467-0.51647-0.2032t-0.45297-0.30903-0.32173-0.47414q-0.11853-0.28787-0.11853-0.70697 0-0.33443 0.13123-0.65194 0.13547-0.3175 0.38947-0.56304t0.62654-0.3937q0.37253-0.14817 0.85514-0.14817 0.54187 0 0.99907 0.16933t0.77894 0.47414z"/>
      <path d="m62.89 20.068-1.9008 6.1214h-1.0287l-1.3377-4.1826q-0.05503-0.1524-0.1016-0.37254-0.0254 0.10583-0.0508 0.19897-0.0254 0.09313-0.05503 0.17357l-1.3504 4.1826h-1.0329l-1.8965-6.1214h0.9525q0.14817 0 0.24554 0.07197 0.1016 0.06773 0.13547 0.18627l1.0414 3.6618q0.03387 0.13547 0.0635 0.29633 0.03387 0.15663 0.06773 0.3302 0.03387-0.1778 0.07197-0.33443 0.04233-0.15663 0.0889-0.2921l1.2023-3.6618q0.03387-0.09737 0.13123-0.1778 0.1016-0.08043 0.24553-0.08043h0.33444q0.14817 0 0.2413 0.07197t0.1397 0.18627l1.198 3.6618q0.0889 0.26247 0.16087 0.60537 0.05503-0.33444 0.12277-0.60537l1.0414-3.6618q0.0254-0.10583 0.127-0.18203 0.10583-0.0762 0.24977-0.0762z"/>
      <path d="m64.785 26.189h-1.143v-6.1214h1.143z"/>
      <path d="m69.741 25.249v0.9398h-3.5856v-6.1214h1.1388v5.1816z"/>
      <path d="m74.139 25.249v0.9398h-3.5856v-6.1214h1.1388v5.1816z"/>
      <path d="m76.096 26.189h-1.143v-6.1214h1.143z"/>
      <path d="m80.7 23.878-0.74507-2.0362q-0.05503-0.13547-0.1143-0.32173-0.05927-0.18627-0.11853-0.40217-0.05503 0.2159-0.1143 0.4064-0.05927 0.18627-0.1143 0.32597l-0.74084 2.0278zm2.0108 2.3114h-0.88054q-0.14817 0-0.2413-0.07197-0.09313-0.0762-0.1397-0.18627l-0.4572-1.2488h-2.5358l-0.4572 1.2488q-0.03387 0.09737-0.13123 0.1778-0.09737 0.08043-0.2413 0.08043h-0.889l2.4088-6.1214h1.1599z"/>
      <path d="m89.991 20.068v6.1214h-1.0033v-3.9539q0-0.23707 0.0254-0.51224l-1.85 3.4756q-0.13123 0.24977-0.40217 0.24977h-0.16087q-0.27093 0-0.40217-0.24977l-1.8711-3.4883q0.0127 0.1397 0.02117 0.27517 0.0085 0.13547 0.0085 0.24977v3.9539h-1.0033v-6.1214h0.85937q0.0762 0 0.13123 0.0042t0.09737 0.02117q0.04657 0.01693 0.08043 0.05503 0.0381 0.0381 0.07197 0.1016l1.833 3.3994q0.07197 0.13547 0.13123 0.2794 0.0635 0.14393 0.12277 0.29633 0.05927-0.15663 0.12277-0.30057 0.0635-0.14817 0.13547-0.28363l1.8076-3.3909q0.03387-0.0635 0.07197-0.1016t0.08043-0.05503q0.04657-0.01693 0.1016-0.02117 0.05503-0.0042 0.13123-0.0042z"/>
      <path d="m96.602 20.068-2.4723 6.1214h-1.0287l-2.4723-6.1214h0.9144q0.14817 0 0.2413 0.07197t0.1397 0.18627l1.4436 3.7338q0.07197 0.18203 0.13547 0.40217 0.06773 0.2159 0.127 0.45297 0.0508-0.23707 0.11007-0.45297 0.05927-0.22013 0.13123-0.40217l1.4351-3.7338q0.03387-0.09737 0.13123-0.1778 0.1016-0.08043 0.24554-0.08043z"/>
      <path d="m100.72 25.215q0.16934 0 0.2667 0.09737 0.1016 0.09313 0.1016 0.24977v0.62654h-4.1995v-0.34714q0-0.10583 0.04233-0.22013 0.04657-0.11853 0.14393-0.21167l1.8584-1.8627q0.23284-0.23707 0.41487-0.45297 0.18627-0.2159 0.30903-0.42757 0.12277-0.21167 0.18627-0.42757 0.06773-0.22013 0.06773-0.46144 0-0.22013-0.0635-0.38524-0.0635-0.16933-0.18203-0.28363-0.1143-0.1143-0.2794-0.16933-0.16087-0.05927-0.36407-0.05927-0.18627 0-0.34714 0.05503-0.15663 0.0508-0.2794 0.14817-0.12277 0.09313-0.20743 0.22013-0.08467 0.127-0.127 0.2794-0.07197 0.19473-0.18627 0.25823t-0.3302 0.02963l-0.55034-0.09737q0.0635-0.44027 0.24553-0.77047 0.18203-0.33444 0.45297-0.55457 0.27517-0.22437 0.62654-0.33443 0.3556-0.1143 0.762-0.1143 0.42333 0 0.7747 0.127 0.35137 0.12277 0.60114 0.35137 0.24976 0.2286 0.38946 0.55034t0.1397 0.71544q0 0.33867-0.1016 0.62654-0.0974 0.28787-0.2667 0.55034-0.1651 0.26247-0.38947 0.508-0.22436 0.24554-0.4699 0.49954l-1.3801 1.4097q0.19897-0.05927 0.3937-0.0889 0.19897-0.03387 0.37677-0.03387z"/>
      <path d="m119.39 20.068-2.4723 6.1214h-1.0287l-2.4723-6.1214h0.91441q0.14816 0 0.2413 0.07197 0.0931 0.07197 0.1397 0.18627l1.4436 3.7338q0.072 0.18203 0.13547 0.40217 0.0677 0.2159 0.127 0.45297 0.0508-0.23707 0.11006-0.45297 0.0593-0.22013 0.13124-0.40217l1.4351-3.7338q0.0339-0.09737 0.13124-0.1778 0.1016-0.08043 0.24553-0.08043z"/>
      <path d="m125.67 23.128q0 0.6731-0.22437 1.2488-0.22014 0.5715-0.62654 0.9906t-0.9779 0.65617q-0.5715 0.23283-1.27 0.23283-0.69427 0-1.2658-0.23283-0.5715-0.23707-0.98214-0.65617-0.4064-0.4191-0.63076-0.9906-0.22437-0.57574-0.22437-1.2488 0-0.6731 0.22437-1.2446 0.22436-0.57574 0.63076-0.99484 0.41064-0.4191 0.98214-0.65194 0.5715-0.23707 1.2658-0.23707 0.46567 0 0.87631 0.11007 0.41063 0.10583 0.75353 0.3048 0.3429 0.19473 0.61384 0.47837 0.27517 0.2794 0.46567 0.62654 0.1905 0.34713 0.28787 0.75354 0.1016 0.4064 0.1016 0.85514zm-1.1642 0q0-0.50377-0.13546-0.9017-0.13547-0.40217-0.38524-0.68157t-0.6096-0.42757q-0.3556-0.14817-0.80434-0.14817-0.44873 0-0.80857 0.14817-0.3556 0.14817-0.6096 0.42757-0.24977 0.2794-0.38523 0.68157-0.13547 0.39794-0.13547 0.9017 0 0.50377 0.13547 0.90594 0.13546 0.39794 0.38523 0.67734 0.254 0.27517 0.6096 0.42334 0.35984 0.14817 0.80857 0.14817 0.44874 0 0.80434-0.14817 0.35983-0.14817 0.6096-0.42334 0.24977-0.2794 0.38524-0.67734 0.13546-0.40217 0.13546-0.90594z"/>
      <path d="m128.53 22.98q0.32174 0 0.5588-0.08043 0.24131-0.08043 0.39371-0.22013 0.15663-0.14393 0.23283-0.33867t0.0762-0.42757q0-0.46567-0.30903-0.71544-0.3048-0.24977-0.93557-0.24977h-0.72814v2.032zm2.9295 3.2089h-1.0287q-0.2921 0-0.42334-0.2286l-1.2869-1.96q-0.072-0.11007-0.16086-0.15663-0.0847-0.04657-0.254-0.04657h-0.48684v2.3918h-1.1388v-6.1214h1.8669q0.6223 0 1.0668 0.13123 0.44874 0.127 0.73237 0.35983 0.28787 0.23284 0.42333 0.5588 0.13547 0.32174 0.13547 0.7112 0 0.30904-0.0931 0.5842-0.0889 0.27517-0.26247 0.49954-0.16933 0.22437-0.42333 0.3937-0.24977 0.16933-0.57151 0.2667 0.11007 0.0635 0.2032 0.1524 0.0931 0.08467 0.16934 0.2032z"/>
      <path d="m137.87 23.128q0 0.6731-0.22437 1.2488-0.22013 0.5715-0.62653 0.9906t-0.97791 0.65617q-0.5715 0.23283-1.27 0.23283-0.69427 0-1.2658-0.23283-0.5715-0.23707-0.98214-0.65617-0.4064-0.4191-0.63077-0.9906-0.22437-0.57574-0.22437-1.2488 0-0.6731 0.22437-1.2446 0.22437-0.57574 0.63077-0.99484 0.41064-0.4191 0.98214-0.65194 0.5715-0.23707 1.2658-0.23707 0.46567 0 0.8763 0.11007 0.41064 0.10583 0.75354 0.3048 0.3429 0.19473 0.61384 0.47837 0.27516 0.2794 0.46566 0.62654 0.1905 0.34713 0.28787 0.75354 0.1016 0.4064 0.1016 0.85514zm-1.1642 0q0-0.50377-0.13547-0.9017-0.13546-0.40217-0.38523-0.68157t-0.6096-0.42757q-0.3556-0.14817-0.80434-0.14817t-0.80857 0.14817q-0.3556 0.14817-0.6096 0.42757-0.24977 0.2794-0.38524 0.68157-0.13546 0.39794-0.13546 0.9017 0 0.50377 0.13546 0.90594 0.13547 0.39794 0.38524 0.67734 0.254 0.27517 0.6096 0.42334 0.35983 0.14817 0.80857 0.14817t0.80434-0.14817q0.35983-0.14817 0.6096-0.42334 0.24977-0.2794 0.38523-0.67734 0.13547-0.40217 0.13547-0.90594z"/>
      <path d="m144.04 20.068v6.1214h-0.5842q-0.13547 0-0.2286-0.04233-0.0889-0.04657-0.17357-0.1524l-3.1962-4.0809q0.0254 0.2794 0.0254 0.51647v3.7592h-1.0033v-6.1214h0.5969q0.072 0 0.12277 0.0085 0.055 0.0042 0.0931 0.0254 0.0423 0.01693 0.0804 0.05503 0.0381 0.03387 0.0847 0.09313l3.2089 4.0979q-0.0127-0.14817-0.0212-0.2921-8e-3 -0.14393-8e-3 -0.2667v-3.7211z"/>
      <path d="m150.94 25.215q0.16934 0 0.2667 0.09737 0.1016 0.09313 0.1016 0.24977v0.62654h-4.1995v-0.34714q0-0.10583 0.0423-0.22013 0.0466-0.11853 0.14393-0.21167l1.8584-1.8627q0.23283-0.23707 0.41487-0.45297 0.18627-0.2159 0.30903-0.42757 0.12277-0.21167 0.18627-0.42757 0.0677-0.22013 0.0677-0.46144 0-0.22013-0.0635-0.38524-0.0635-0.16933-0.18203-0.28363-0.1143-0.1143-0.2794-0.16933-0.16087-0.05927-0.36407-0.05927-0.18627 0-0.34713 0.05503-0.15664 0.0508-0.27941 0.14817-0.12276 0.09313-0.20743 0.22013-0.0847 0.127-0.127 0.2794-0.072 0.19473-0.18627 0.25823-0.1143 0.0635-0.3302 0.02963l-0.55033-0.09737q0.0635-0.44027 0.24553-0.77047 0.18203-0.33444 0.45297-0.55457 0.27517-0.22437 0.62653-0.33443 0.35561-0.1143 0.76201-0.1143 0.42333 0 0.7747 0.127 0.35137 0.12277 0.60114 0.35137 0.24976 0.2286 0.38946 0.55034t0.1397 0.71544q0 0.33867-0.1016 0.62654-0.0974 0.28787-0.2667 0.55034-0.1651 0.26247-0.38947 0.508-0.22436 0.24554-0.4699 0.49954l-1.3801 1.4097q0.19897-0.05927 0.3937-0.0889 0.19897-0.03387 0.37677-0.03387z"/>
      <path d="m152.06 25.613q0-0.13123 0.0466-0.24977 0.0508-0.11853 0.13547-0.2032 0.0847-0.08467 0.2032-0.13547 0.11853-0.0508 0.254-0.0508 0.13546 0 0.24976 0.0508 0.11854 0.0508 0.20321 0.13547 0.0889 0.08467 0.1397 0.2032t0.0508 0.24977q0 0.13547-0.0508 0.254-0.0508 0.1143-0.1397 0.19897-0.0847 0.08467-0.20321 0.13123-0.1143 0.0508-0.24976 0.0508-0.13547 0-0.254-0.0508-0.11854-0.04657-0.2032-0.13123-0.0847-0.08467-0.13547-0.19897-0.0466-0.11853-0.0466-0.254z"/>
      <path d="m156.73 23.882v-2.0024q0-0.28363 0.0381-0.62654l-1.9008 2.6289zm1.6806 0v0.60537q0 0.08467-0.055 0.14817-0.055 0.05927-0.15663 0.05927h-0.55881v1.4944h-0.91017v-1.4944h-2.5823q-0.10583 0-0.18627-0.0635-0.0804-0.06773-0.1016-0.1651l-0.11006-0.52917 2.8998-3.8735h0.9906v3.8185z"/>
      <path d="m28.908 34.461-0.74507-2.0362q-0.05503-0.13547-0.1143-0.32173-0.05927-0.18627-0.11853-0.40217-0.05503 0.2159-0.1143 0.4064-0.05927 0.18627-0.1143 0.32597l-0.74084 2.0278zm2.0108 2.3114h-0.88054q-0.14817 0-0.2413-0.07197-0.09313-0.0762-0.1397-0.18627l-0.4572-1.2488h-2.5358l-0.4572 1.2488q-0.03387 0.09737-0.13123 0.1778-0.09737 0.08043-0.2413 0.08043h-0.889l2.4088-6.1214h1.1599z"/>
      <path d="m35.32 33.729q0.31327 0 0.5461-0.0762 0.23283-0.08043 0.38523-0.22437 0.15663-0.14817 0.23284-0.3556 0.0762-0.21167 0.0762-0.4699 0-0.24553-0.0762-0.4445t-0.2286-0.33867-0.38524-0.21167q-0.23283-0.0762-0.55034-0.0762h-0.8509v2.1971zm0-3.0776q0.61384 0 1.0626 0.14393 0.44874 0.14393 0.74084 0.40217 0.2921 0.25823 0.4318 0.61807 0.14393 0.35983 0.14393 0.7874 0 0.4445-0.14817 0.81704-0.14817 0.3683-0.4445 0.635t-0.74507 0.41487q-0.4445 0.14817-1.0414 0.14817h-0.8509v2.1548h-1.1388v-6.1214z"/>
      <path d="m40.422 33.564q0.32173 0 0.5588-0.08043 0.2413-0.08043 0.3937-0.22014 0.15663-0.14393 0.23284-0.33867 0.0762-0.19473 0.0762-0.42757 0-0.46567-0.30904-0.71544-0.3048-0.24977-0.93557-0.24977h-0.72814v2.032zm2.9295 3.2089h-1.0287q-0.2921 0-0.42334-0.2286l-1.2869-1.96q-0.071967-0.11007-0.16087-0.15663-0.084667-0.046567-0.254-0.046567h-0.48684v2.3918h-1.1388v-6.1214h1.8669q0.6223 0 1.0668 0.13123 0.44874 0.127 0.73237 0.35984 0.28787 0.23283 0.42334 0.5588 0.13547 0.32174 0.13547 0.7112 0 0.30904-0.09313 0.5842-0.0889 0.27517-0.26247 0.49954-0.16933 0.22437-0.42334 0.3937-0.24977 0.16933-0.5715 0.2667 0.11007 0.0635 0.2032 0.1524 0.09313 0.08467 0.16933 0.2032z"/>
      <path d="m45.156 36.772h-1.143v-6.1214h1.143z"/>
      <path d="m51.687 30.651v6.1214h-0.5842q-0.13547 0-0.2286-0.04233-0.0889-0.04657-0.17357-0.1524l-3.1962-4.0809q0.0254 0.2794 0.0254 0.51647v3.7592h-1.0033v-6.1214h0.5969q0.07197 0 0.12277 0.0085 0.05503 0.0042 0.09313 0.0254 0.04233 0.01693 0.08043 0.05503 0.0381 0.03387 0.08467 0.09313l3.2089 4.0979q-0.0127-0.14817-0.02117-0.2921-0.0085-0.14393-0.0085-0.2667v-3.7211z"/>
      <path d="m57.334 31.587h-1.8457v5.1859h-1.1388v-5.1859h-1.8457v-0.93557h4.8303z"/>
      <path d="m59.278 31.557v1.6976h2.1421v0.8763h-2.1421v1.7314h2.7178v0.91017h-3.8608v-6.1214h3.8608v0.90594z"/>
      <path d="m64.847 33.564q0.32173 0 0.5588-0.08043 0.2413-0.08043 0.3937-0.22014 0.15663-0.14393 0.23283-0.33867 0.0762-0.19473 0.0762-0.42757 0-0.46567-0.30903-0.71544-0.3048-0.24977-0.93557-0.24977h-0.72814v2.032zm2.9295 3.2089h-1.0287q-0.2921 0-0.42334-0.2286l-1.2869-1.96q-0.07197-0.11007-0.16087-0.15663-0.08467-0.04657-0.254-0.04657h-0.48684v2.3918h-1.1388v-6.1214h1.8669q0.6223 0 1.0668 0.13123 0.44874 0.127 0.73237 0.35984 0.28787 0.23283 0.42334 0.5588 0.13547 0.32174 0.13547 0.7112 0 0.30904-0.09313 0.5842-0.0889 0.27517-0.26247 0.49954-0.16933 0.22437-0.42334 0.3937-0.24977 0.16933-0.5715 0.2667 0.11007 0.0635 0.2032 0.1524 0.09313 0.08467 0.16933 0.2032z"/>
      <path d="m68.255 37.81q-0.0762-0.0635-0.0762-0.15663 0-0.03387 0.02117-0.0762 0.0254-0.04233 0.05927-0.0762 0.04657-0.0508 0.1143-0.127 0.06773-0.07197 0.13547-0.16933 0.06773-0.09313 0.12277-0.20743 0.05927-0.11007 0.0889-0.23707-0.13547 0-0.24553-0.04657-0.11007-0.0508-0.1905-0.13547-0.0762-0.08467-0.12277-0.19897-0.04233-0.1143-0.04233-0.24977 0-0.11853 0.04233-0.22013 0.04657-0.10583 0.127-0.18203 0.08043-0.08043 0.19473-0.12277 0.1143-0.04657 0.24977-0.04657 0.16087 0 0.2794 0.05927 0.12277 0.05503 0.19897 0.15663 0.08043 0.09737 0.11853 0.2286 0.04233 0.127 0.04233 0.27093 0 0.2032-0.0635 0.42757-0.05927 0.22437-0.1778 0.44874t-0.29634 0.43604q-0.17357 0.21167-0.39793 0.38947z"/>
      <path d="m74.762 35.883q0.3175 0 0.5334-0.0762t0.3429-0.2032q0.13123-0.127 0.18627-0.29634 0.05927-0.16933 0.05927-0.35983 0-0.19897-0.0635-0.3556-0.0635-0.16087-0.19897-0.27093-0.13547-0.1143-0.35137-0.17357-0.21167-0.05927-0.51224-0.05927h-1.1472v1.7949zm-1.1515-4.3519v1.7695h0.90594q0.5842 0 0.88054-0.21167 0.30057-0.21167 0.30057-0.6731 0-0.47837-0.27093-0.68157-0.27094-0.2032-0.84667-0.2032zm0.96944-0.88054q0.60114 0 1.0287 0.1143t0.6985 0.32597q0.27517 0.21167 0.40217 0.51224t0.127 0.67734q0 0.2159-0.0635 0.41487-0.0635 0.19473-0.19897 0.3683-0.13123 0.16933-0.33867 0.30903-0.2032 0.1397-0.48684 0.23707 1.2615 0.28364 1.2615 1.3631 0 0.38947-0.14817 0.71967t-0.4318 0.5715q-0.28364 0.23707-0.6985 0.37254t-0.94827 0.13547h-2.3114v-6.1214z"/>
      <path d="m80.509 35.854q0.3302 0 0.58844-0.11007 0.26247-0.11007 0.44027-0.30903 0.1778-0.19897 0.27093-0.4826 0.09737-0.28363 0.09737-0.635v-3.6661h1.1388v3.6661q0 0.5461-0.1778 1.0118-0.17357 0.46144-0.50377 0.8001-0.32597 0.33444-0.79587 0.52494-0.4699 0.18627-1.0583 0.18627-0.59267 0-1.0626-0.18627-0.4699-0.1905-0.8001-0.52494-0.32597-0.33867-0.50377-0.8001-0.17357-0.46567-0.17357-1.0118v-3.6661h1.1388v3.6618q0 0.35137 0.09313 0.635 0.09737 0.28363 0.27517 0.48684 0.18203 0.19897 0.44027 0.30903 0.26247 0.11007 0.59267 0.11007z"/>
      <path d="m88.604 31.587h-1.8457v5.1859h-1.1388v-5.1859h-1.8457v-0.93557h4.8303z"/>
      <path d="m94.145 34.461-0.74507-2.0362q-0.05503-0.13547-0.1143-0.32173-0.05927-0.18627-0.11853-0.40217-0.05503 0.2159-0.1143 0.4064-0.05927 0.18627-0.1143 0.32597l-0.74084 2.0278zm2.0108 2.3114h-0.88054q-0.14817 0-0.2413-0.07197-0.09313-0.0762-0.1397-0.18627l-0.4572-1.2488h-2.5358l-0.4572 1.2488q-0.03387 0.09737-0.13123 0.1778-0.09737 0.08043-0.2413 0.08043h-0.889l2.4088-6.1214h1.1599z"/>
      <path d="m100.38 35.833v0.9398h-3.5856v-6.1214h1.1388v5.1816z"/>
      <path d="m104.46 31.764q-0.0508 0.0889-0.11006 0.13123-0.055 0.0381-0.1397 0.0381-0.0889 0-0.19474-0.0635-0.1016-0.06773-0.24553-0.14817-0.14394-0.08043-0.33867-0.14393-0.1905-0.06773-0.45297-0.06773-0.23707 0-0.41487 0.05927-0.1778 0.05503-0.30056 0.15663-0.11854 0.1016-0.1778 0.24554-0.0593 0.1397-0.0593 0.30903 0 0.2159 0.11853 0.35984 0.12277 0.14393 0.32174 0.24553 0.19896 0.1016 0.45297 0.18203 0.254 0.08043 0.5207 0.17357 0.2667 0.0889 0.5207 0.21167 0.254 0.11853 0.45297 0.3048 0.19897 0.18203 0.3175 0.44874 0.12277 0.2667 0.12277 0.6477 0 0.41487-0.14394 0.77894-0.1397 0.35984-0.41487 0.63077-0.27093 0.2667-0.66463 0.42334-0.3937 0.1524-0.90171 0.1524-0.2921 0-0.57573-0.05927-0.28364-0.05503-0.5461-0.16087-0.25824-0.10583-0.48684-0.254t-0.4064-0.3302l0.33443-0.5461q0.0423-0.05927 0.11007-0.09737 0.0677-0.04233 0.14394-0.04233 0.10583 0 0.2286 0.0889 0.12276 0.08467 0.2921 0.1905 0.16933 0.10583 0.3937 0.19473 0.2286 0.08467 0.5461 0.08467 0.48684 0 0.75354-0.2286 0.2667-0.23283 0.2667-0.66464 0-0.2413-0.12277-0.3937-0.11853-0.1524-0.3175-0.254-0.19897-0.10583-0.45297-0.1778t-0.51647-0.15663q-0.26246-0.08467-0.51647-0.2032-0.254-0.11853-0.45296-0.30903-0.19897-0.1905-0.32174-0.47414-0.11853-0.28787-0.11853-0.70697 0-0.33443 0.13123-0.65194 0.13547-0.3175 0.38947-0.56304t0.62654-0.3937q0.37253-0.14817 0.85513-0.14817 0.54187 0 0.99907 0.16933t0.77894 0.47414z"/>
      <path d="m111.68 33.712q0 0.6731-0.22436 1.2488-0.22014 0.5715-0.62654 0.9906t-0.9779 0.65617q-0.57151 0.23283-1.27 0.23283-0.69427 0-1.2658-0.23283-0.5715-0.23707-0.98214-0.65617-0.4064-0.4191-0.63077-0.9906-0.22436-0.57574-0.22436-1.2488 0-0.6731 0.22436-1.2446 0.22437-0.57574 0.63077-0.99484 0.41064-0.4191 0.98214-0.65194 0.5715-0.23707 1.2658-0.23707 0.46567 0 0.87631 0.11007 0.41063 0.10583 0.75353 0.3048 0.3429 0.19473 0.61384 0.47837 0.27516 0.2794 0.46567 0.62654 0.1905 0.34713 0.28786 0.75354 0.1016 0.4064 0.1016 0.85514zm-1.1642 0q0-0.50377-0.13546-0.9017-0.13547-0.40217-0.38524-0.68157t-0.6096-0.42757q-0.3556-0.14817-0.80434-0.14817-0.44873 0-0.80857 0.14817-0.3556 0.14817-0.6096 0.42757-0.24977 0.2794-0.38524 0.68157-0.13546 0.39794-0.13546 0.9017 0 0.50377 0.13546 0.90594 0.13547 0.39794 0.38524 0.67734 0.254 0.27517 0.6096 0.42334 0.35984 0.14817 0.80857 0.14817 0.44874 0 0.80434-0.14817 0.35983-0.14817 0.6096-0.42334 0.24977-0.2794 0.38524-0.67734 0.13546-0.40217 0.13546-0.90594z"/>
      <path d="m117.69 34.461-0.74507-2.0362q-0.055-0.13547-0.1143-0.32173-0.0593-0.18627-0.11854-0.40217-0.055 0.2159-0.1143 0.4064-0.0593 0.18627-0.1143 0.32597l-0.74084 2.0278zm2.0108 2.3114h-0.88054q-0.14817 0-0.2413-0.07197-0.0931-0.0762-0.1397-0.18627l-0.4572-1.2488h-2.5358l-0.4572 1.2488q-0.0339 0.09737-0.13124 0.1778-0.0974 0.08043-0.2413 0.08043h-0.889l2.4088-6.1214h1.1599z"/>
      <path d="m126.32 35.329q0.0931 0 0.1651 0.07197l0.44874 0.48684q-0.37254 0.46144-0.91864 0.70697-0.54187 0.24553-1.3039 0.24553-0.68157 0-1.2277-0.23283-0.54187-0.23283-0.9271-0.6477-0.38524-0.41487-0.59267-0.9906-0.2032-0.57574-0.2032-1.2573 0-0.69004 0.22013-1.2615 0.22013-0.57574 0.61807-0.9906 0.40217-0.41487 0.95674-0.64347 0.55456-0.23283 1.2277-0.23283 0.66887 0 1.1853 0.22013 0.52071 0.22013 0.88478 0.57574l-0.38101 0.52917q-0.0339 0.0508-0.0889 0.0889-0.0508 0.0381-0.14393 0.0381-0.0635 0-0.13123-0.03387-0.0677-0.0381-0.14817-0.0889-0.0804-0.05503-0.18627-0.11853-0.10583-0.0635-0.24553-0.1143-0.1397-0.05503-0.32597-0.0889-0.18204-0.0381-0.42334-0.0381-0.41063 0-0.75353 0.14817-0.33867 0.14393-0.5842 0.42334-0.24554 0.27517-0.38101 0.67734-0.13546 0.39794-0.13546 0.91017 0 0.51647 0.14393 0.91864 0.14817 0.40217 0.39794 0.67734 0.24976 0.27517 0.58843 0.42334 0.33867 0.14393 0.72814 0.14393 0.23283 0 0.4191-0.0254 0.1905-0.0254 0.34713-0.08043 0.16087-0.05503 0.30057-0.1397 0.14394-0.0889 0.28364-0.2159 0.0423-0.0381 0.0889-0.05927 0.0466-0.0254 0.0974-0.0254z"/>
      <path d="m133.43 33.712q0 0.6731-0.22436 1.2488-0.22014 0.5715-0.62654 0.9906t-0.9779 0.65617q-0.57151 0.23283-1.27 0.23283-0.69427 0-1.2658-0.23283-0.5715-0.23707-0.98214-0.65617-0.4064-0.4191-0.63077-0.9906-0.22436-0.57574-0.22436-1.2488 0-0.6731 0.22436-1.2446 0.22437-0.57574 0.63077-0.99484 0.41064-0.4191 0.98214-0.65194 0.5715-0.23707 1.2658-0.23707 0.46567 0 0.8763 0.11007 0.41064 0.10583 0.75354 0.3048 0.3429 0.19473 0.61384 0.47837 0.27516 0.2794 0.46566 0.62654 0.19051 0.34713 0.28787 0.75354 0.1016 0.4064 0.1016 0.85514zm-1.1642 0q0-0.50377-0.13547-0.9017-0.13546-0.40217-0.38523-0.68157t-0.6096-0.42757q-0.3556-0.14817-0.80434-0.14817-0.44873 0-0.80857 0.14817-0.3556 0.14817-0.6096 0.42757-0.24977 0.2794-0.38524 0.68157-0.13546 0.39794-0.13546 0.9017 0 0.50377 0.13546 0.90594 0.13547 0.39794 0.38524 0.67734 0.254 0.27517 0.6096 0.42334 0.35984 0.14817 0.80857 0.14817 0.44874 0 0.80434-0.14817 0.35983-0.14817 0.6096-0.42334 0.24977-0.2794 0.38523-0.67734 0.13547-0.40217 0.13547-0.90594z"/>
      <path d="m141.07 30.651v6.1214h-1.0033v-3.9539q0-0.23707 0.0254-0.51224l-1.85 3.4756q-0.13123 0.24977-0.40217 0.24977h-0.16086q-0.27094 0-0.40217-0.24977l-1.8711-3.4883q0.0127 0.1397 0.0212 0.27517 8e-3 0.13547 8e-3 0.24977v3.9539h-1.0033v-6.1214h0.85937q0.0762 0 0.13123 0.0042 0.055 0.0042 0.0974 0.02117 0.0466 0.01693 0.0804 0.05503 0.0381 0.0381 0.072 0.1016l1.833 3.3994q0.072 0.13547 0.13123 0.2794 0.0635 0.14393 0.12277 0.29633 0.0593-0.15663 0.12277-0.30057 0.0635-0.14817 0.13546-0.28363l1.8076-3.3909q0.0339-0.0635 0.072-0.1016t0.0804-0.05503q0.0466-0.01693 0.10161-0.02117 0.055-0.0042 0.13123-0.0042z"/>
      <path d="m144.43 33.729q0.31327 0 0.5461-0.0762 0.23283-0.08043 0.38524-0.22437 0.15663-0.14817 0.23283-0.3556 0.0762-0.21167 0.0762-0.4699 0-0.24553-0.0762-0.4445t-0.2286-0.33867-0.38524-0.21167q-0.23283-0.0762-0.55033-0.0762h-0.85091v2.1971zm0-3.0776q0.61383 0 1.0626 0.14393 0.44873 0.14393 0.74084 0.40217 0.2921 0.25823 0.4318 0.61807 0.14393 0.35983 0.14393 0.7874 0 0.4445-0.14817 0.81704-0.14816 0.3683-0.4445 0.635-0.29633 0.2667-0.74507 0.41487-0.4445 0.14817-1.0414 0.14817h-0.85091v2.1548h-1.1388v-6.1214z"/>
      <path d="m150.14 35.854q0.3302 0 0.58843-0.11007 0.26247-0.11007 0.44027-0.30903 0.1778-0.19897 0.27093-0.4826 0.0974-0.28363 0.0974-0.635v-3.6661h1.1388v3.6661q0 0.5461-0.1778 1.0118-0.17357 0.46144-0.50377 0.8001-0.32596 0.33444-0.79587 0.52494-0.4699 0.18627-1.0583 0.18627-0.59267 0-1.0626-0.18627-0.46991-0.1905-0.80011-0.52494-0.32597-0.33867-0.50377-0.8001-0.17356-0.46567-0.17356-1.0118v-3.6661h1.1388v3.6618q0 0.35137 0.0931 0.635 0.0974 0.28363 0.27517 0.48684 0.18203 0.19897 0.44027 0.30903 0.26247 0.11007 0.59267 0.11007z"/>
      <path d="m158.24 31.587h-1.8457v5.1859h-1.1388v-5.1859h-1.8457v-0.93557h4.8302z"/>
      <path d="m160.18 31.557v1.6976h2.1421v0.8763h-2.1421v1.7314h2.7178v0.91017h-3.8608v-6.1214h3.8608v0.90594z"/>
      <path d="m165.75 33.564q0.32173 0 0.5588-0.08043 0.2413-0.08043 0.3937-0.22014 0.15664-0.14393 0.23284-0.33867 0.0762-0.19473 0.0762-0.42757 0-0.46567-0.30904-0.71544-0.3048-0.24977-0.93557-0.24977h-0.72813v2.032zm2.9295 3.2089h-1.0287q-0.2921 0-0.42333-0.2286l-1.2869-1.96q-0.072-0.11007-0.16087-0.15663-0.0847-0.04657-0.254-0.04657h-0.48683v2.3918h-1.1388v-6.1214h1.8669q0.6223 0 1.0668 0.13123 0.44873 0.127 0.73237 0.35984 0.28786 0.23283 0.42333 0.5588 0.13547 0.32174 0.13547 0.7112 0 0.30904-0.0931 0.5842-0.0889 0.27517-0.26246 0.49954-0.16934 0.22437-0.42334 0.3937-0.24977 0.16933-0.5715 0.2667 0.11007 0.0635 0.2032 0.1524 0.0931 0.08467 0.16933 0.2032z"/>
    </g>
  </g>
</svg>
