<?xml version="1.0" encoding="UTF-8" standalone="no"?>
<svg
   version="1.1"
   viewBox="0 0 196.142 18.993"
   id="svg898"
   width="196.142mm"
   height="18.993mm"
   xmlns="http://www.w3.org/2000/svg"
   xmlns:svg="http://www.w3.org/2000/svg">
  <defs
     id="defs902" />
  <g
     transform="translate(0,-1.9996)"
     font-weight="bold"
     stroke-width="0.26458"
     id="g896">
    <g
       aria-label="OITSWILLIAMV2"
       id="g850"
       transform="translate(1,3)"
       style="fill:#ffffff">
      <path
         d="m 7.7978,16.993 q -1.3716,0 -2.54,-0.1778 Q 4.1148,16.6374 2.8702,16.2056 1.524,15.7484 0.762,14.7324 0,13.691 0,12.2178 V 5.0042 Q 0,3.785 0.5334,2.8198 1.0922,1.8546 1.9558,1.2958 2.7178,0.8132 3.8354,0.483 4.953,0.1528 5.9182,0.0766 6.8072,4e-4 7.7978,4e-4 q 1.1684,0 2.032,0.1016 0.8636,0.0762 1.9304,0.3556 1.2192,0.3556 2.0066,0.8636 0.7874,0.508 1.3208,1.4224 0.5588,0.9398 0.5588,2.2606 v 7.2136 q 0,1.3716 -0.7366,2.3622 -0.7112,0.9906 -1.9812,1.4986 -2.286,0.9144 -5.1308,0.9144 z m 0.0508,-2.8194 q 0.8382,0 1.397,-0.0508 0.5842,-0.0762 1.1938,-0.254 0.6096,-0.1778 0.9144,-0.5842 0.3302,-0.4318 0.3302,-1.0668 v -7.239 q 0,-1.1684 -0.9398,-1.651 -0.9398,-0.508 -2.921,-0.508 -1.9812,0 -2.921,0.4826 Q 3.9624,3.785 3.9624,4.9788 v 7.239 q 0,0.635 0.3302,1.0668 0.3302,0.4064 0.9652,0.5842 0.6096,0.1778 1.1684,0.254 0.5842,0.0508 1.4224,0.0508 z"
         id="path824"
         style="fill:#ffffff" />
      <path
         d="m 18.86,0.254 h 3.9624 V 16.739 H 18.86 Z"
         id="path826"
         style="fill:#ffffff" />
      <path
         d="m 30.211,3.0734 h -5.08 V 0.254 h 14.097 v 2.8194 h -5.0546 v 13.665 H 30.211 Z"
         id="path828"
         style="fill:#ffffff" />
      <path
         d="m 46.865,16.993 q -2.3622,0 -5.842,-0.4572 v -3.0226 q 4.318,0.6604 5.8928,0.6604 3.302,0 3.302,-1.7018 V 11.405 q 0,-0.8128 -0.4826,-1.2446 Q 49.278,9.7286 48.0588,9.7286 h -1.9304 q -5.4356,0 -5.4356,-4.318 V 4.1914 q 0,-2.159 1.8034,-3.175 1.8034,-1.016 5.715,-1.016 2.032,0 5.1562,0.3302 V 3.277 Q 49.532,2.8198 48.0842,2.8198 q -2.0066,0 -2.6924,0.3302 -0.7366,0.3556 -0.7366,1.1176 V 5.436 q 0,1.2954 2.1844,1.2954 h 1.9812 q 2.8194,0 4.0894,1.0414 1.27,1.0414 1.27,3.175 V 12.04 q 0,2.9464 -2.1082,3.9878 -1.016,0.5334 -2.2606,0.7366 -1.2192,0.2286 -2.9464,0.2286 z"
         id="path830"
         style="fill:#ffffff" />
      <path
         d="m 55.335,0.254 h 4.1148 l 3.2004,12.04 3.2004,-12.04 h 3.683 l 3.4544,12.04 2.9464,-12.04 h 4.0132 L 74.6644,16.739 H 70.7528 L 67.6032,4.776 64.352,16.739 h -3.9116 z"
         id="path832"
         style="fill:#ffffff" />
      <path
         d="m 81.913,0.254 h 3.9624 V 16.739 H 81.913 Z"
         id="path834"
         style="fill:#ffffff" />
      <path
         d="m 89.454,0.254 h 3.9624 v 13.665 h 8.1026 v 2.8194 H 89.454 Z"
         id="path836"
         style="fill:#ffffff" />
      <path
         d="m 104.19,0.254 h 3.9624 v 13.665 h 8.1026 v 2.8194 H 104.19 Z"
         id="path838"
         style="fill:#ffffff" />
      <path
         d="m 118.92,0.254 h 3.9624 V 16.739 H 118.92 Z"
         id="path840"
         style="fill:#ffffff" />
      <path
         d="m 130.83,0.254 h 4.826 l 5.9436,16.485 h -4.0132 l -1.4732,-4.3434 h -6.0198 l -1.4478,4.3434 h -3.9116 z m 4.4196,9.4996 -2.0828,-6.1976 h -0.1016 l -2.0828,6.1976 z"
         id="path842"
         style="fill:#ffffff" />
      <path
         d="m 143.43,0.254 h 5.6388 l 4.064,11.786 4.0132,-11.786 h 5.3086 v 16.485 h -3.5814 V 4.547 h -0.0762 l -4.1656,12.192 h -3.175 L 147.1638,4.547 h -0.1016 V 16.739 H 143.43 Z"
         id="path844"
         style="fill:#ffffff" />
      <path
         d="m 164.22,0.254 h 4.0132 l 4.4196,13.183 h 0.1016 L 177.174,0.254 h 3.9116 l -6.096,16.485 h -4.8514 z"
         id="path846"
         style="fill:#ffffff" />
      <path
         d="m 182.56,12.979 q 0,-1.3716 0.762,-2.3876 0.762,-1.016 1.9812,-1.5494 0.9652,-0.4318 2.2606,-0.8636 1.2954,-0.4318 2.0066,-0.9144 0.7112,-0.4826 0.7112,-1.143 V 4.0128 q 0,-0.7874 -0.635,-1.0414 -0.6858,-0.2794 -2.1336,-0.2794 -1.7526,0 -4.6228,0.635 V 0.533 q 2.54,-0.5334 5.3086,-0.5334 2.9972,0 4.445,0.9144 1.4732,0.9144 1.4732,3.048 v 2.286 q 0,1.2954 -0.7874,2.2606 -0.762,0.9398 -1.9812,1.4224 -1.143,0.4826 -2.3368,0.8636 -1.2954,0.4572 -2.0574,1.016 -0.7366,0.5588 -0.7366,1.3208 v 0.8382 h 7.9248 v 2.7686 h -11.582 z"
         id="path848"
         style="fill:#ffffff" />
    </g>
  </g>
</svg>
